<svg xmlns="http://www.w3.org/2000/svg" viewBox="0 0 193.1 165.43"><defs><style>.cls-1{fill:#e1caff;}.cls-2{fill:#8a2eed;}.cls-3{fill:#fcc0b4;}.cls-4{fill:#173449;}.cls-5{fill:#fff;}.cls-6{fill:#f47471;}.cls-7{fill:#6791ce;}.cls-8{fill:#ec8af1;}.cls-9{fill:#ffebca;}.cls-10{fill:#3e9b7e;}</style></defs><g id="Camada_2" data-name="Camada 2"><g id="OBJECTS"><path class="cls-1" d="M3.69,124.16c-5.33-12.6-5.19-27.94,2.43-39.3,5.71-8.52,14.89-14.09,21.45-22C36.08,52.66,39.66,39.23,46.9,28.07A62.42,62.42,0,0,1,91.15.46C103.1-1,115.22,1.12,126.81,4.4c16.71,4.73,33.6,12.68,43.13,27.2,7.9,12,9.7,26.94,14.2,40.63,2.9,8.79,7,17.27,8.41,26.41a47.83,47.83,0,0,1-10.08,37.21c-5.27,6.44-12.49,11.54-20.67,13.07-11.46,2.15-22.88-2.78-33.92-6.53A177.16,177.16,0,0,0,87,133.71c-13.41-1.23-27.74-.53-39.21,7.27-4.8,3.27-10,7.28-15.8,8.4s-10.66-1.91-14.66-5.75A59.38,59.38,0,0,1,3.69,124.16Z"/><path class="cls-2" d="M48.26,92.54c-7.1,4.52-12.92,10.94-18.37,17.54-6.77,8.2-13.46,18-12.37,28.87.91,8.93,7.21,16.49,14.76,20.61s16.23,5.28,24.72,5.69a157.76,157.76,0,0,0,23.61-.65c12-1.24,23.85-3.85,35.87-3.78,10.51.05,21,2.16,31.48,1.48s21.57-4.8,27.26-14.13a26.06,26.06,0,0,0-1.43-28.36,43.51,43.51,0,0,0-9.41-8.46c-6.85-4.95-13.88-9.6-20.92-14.24-5.85-3.87-11.76-7.77-18.26-10.22a60.68,60.68,0,0,0-16.38-3.46c-5.46-.47-10.92-.1-16.37-.46-1.68-.11-3.32-.44-5-.43-2.58,0-5.17.35-7.74.62a103.32,103.32,0,0,0-15.5,2.65A55.54,55.54,0,0,0,48.26,92.54Z"/><path class="cls-3" d="M103.15,89.56l-2.94-19.8-4.79-.88-4.79.88-2.94,19.8s-.85,7.77,7.73,9.82C104,97.33,103.15,89.56,103.15,89.56Z"/><path class="cls-4" d="M95.08,33A3.22,3.22,0,0,0,93,35.76a4.38,4.38,0,0,0-6.47,3.93A6.41,6.41,0,0,0,83,41.42a3.68,3.68,0,0,0-.91,3.7A6.67,6.67,0,0,0,80.38,48a2.3,2.3,0,0,0,1.37,2.71c1.12.31,2.64-.47,3.3.49.3.43.24,1,.58,1.44.58.68,1.76.11,2.11-.71a25.24,25.24,0,0,0,.5-2.62c.42-1.35,1.75-2.69,1.08-3.94a4.27,4.27,0,0,0,3.49-2.66,2.92,2.92,0,0,0,3.7-.6,3.45,3.45,0,0,0,3.6,1.2,3.76,3.76,0,0,0,.72,2.36l.45.79A3.46,3.46,0,0,0,102.71,48c.16.72,0,1.49.1,2.22s.63,1.54,1.38,1.5,1.28-1,2.08-1.25a9.22,9.22,0,0,1,1.29,0,2,2,0,0,0,1.59-2.18,3.66,3.66,0,0,0-1.47-2.49,3.55,3.55,0,0,0,.12-6.58,4.57,4.57,0,0,0,1.64-2.88,2.22,2.22,0,0,0-1.85-2.42,4.07,4.07,0,0,0,.5-3.94,3.48,3.48,0,0,0-3.3-2.08A3,3,0,0,0,102,30.53c-.51-1.18-2.35-1.23-3.23-.29A3.19,3.19,0,0,0,98,32.57a4.81,4.81,0,0,1,.07.64c0,.31-.14.15-.36,0a3.28,3.28,0,0,0-1.22-.42A3.2,3.2,0,0,0,95.08,33Z"/><path class="cls-3" d="M106.31,64.34c.12-2,.58-4.25.12-6.17a101.64,101.64,0,0,0-3.27-10.89,13.31,13.31,0,0,0-2.64-4.83,4.91,4.91,0,0,0-5-1.45,4.89,4.89,0,0,0-5,1.45,13.16,13.16,0,0,0-2.64,4.83,99.4,99.4,0,0,0-3.27,10.89,21,21,0,0,0-.17,6,7.84,7.84,0,0,0,2.28,5.31c1.17,1.07,3.77,2.09,5.78,2.76a10.28,10.28,0,0,0,6.73,0,16.18,16.18,0,0,0,4.89-2.6A7.89,7.89,0,0,0,106.31,64.34Z"/><ellipse class="cls-5" cx="91.53" cy="52.84" rx="2.06" ry="2.4"/><ellipse class="cls-4" cx="91.52" cy="53.6" rx="0.77" ry="0.91"/><ellipse class="cls-5" cx="99.86" cy="52.85" rx="2.06" ry="2.4"/><ellipse class="cls-4" cx="99.86" cy="53.6" rx="0.77" ry="0.91"/><path class="cls-3" d="M85.68,50.34l-.08-.05a2.89,2.89,0,0,0-2.95.09A6,6,0,0,0,81,58.9a2.81,2.81,0,0,0,1.13,1A2.56,2.56,0,0,0,84,59.82a4.91,4.91,0,0,0,2.72-2.89,7.75,7.75,0,0,0,.27-4A3.9,3.9,0,0,0,85.68,50.34Z"/><path class="cls-4" d="M84.18,52.2A4.65,4.65,0,0,0,83,57.58c.1.21.42,0,.32-.19a4.27,4.27,0,0,1,1.1-4.93c.19-.16-.08-.42-.26-.26Z"/><path class="cls-4" d="M83,55a2.09,2.09,0,0,1,1.23,1.57.18.18,0,0,0,.22.13.19.19,0,0,0,.13-.23,2.45,2.45,0,0,0-1.48-1.83.19.19,0,0,0-.23.13A.2.2,0,0,0,83,55Z"/><path class="cls-3" d="M104.94,50.34l.08-.05a2.89,2.89,0,0,1,3,.09,6,6,0,0,1,1.67,8.52,2.81,2.81,0,0,1-1.13,1,2.56,2.56,0,0,1-1.92-.06,4.88,4.88,0,0,1-2.72-2.89,7.75,7.75,0,0,1-.27-4A3.82,3.82,0,0,1,104.94,50.34Z"/><path class="cls-4" d="M106.17,52.46a4.28,4.28,0,0,1,1.11,4.93c-.1.21.22.4.32.19a4.65,4.65,0,0,0-1.16-5.38c-.18-.16-.45.1-.27.26Z"/><path class="cls-4" d="M107.57,54.62a2.43,2.43,0,0,0-1.48,1.83.19.19,0,0,0,.13.23c.08,0,.21,0,.22-.13A2.1,2.1,0,0,1,107.66,55a.19.19,0,0,0,.13-.23.18.18,0,0,0-.22-.13Z"/><path class="cls-4" d="M89.8,48.85c.58-1,1.86-1.12,2.9-1.13a.3.3,0,0,0,0-.6c-1.26,0-2.73.22-3.42,1.42a.3.3,0,0,0,.52.31Z"/><path class="cls-4" d="M97.87,47.52a3.91,3.91,0,0,1,3,.68.3.3,0,0,0,.41-.1.32.32,0,0,0-.11-.42,4.47,4.47,0,0,0-3.44-.74.3.3,0,0,0-.21.37.32.32,0,0,0,.37.21Z"/><path class="cls-4" d="M95.18,56.38a2,2,0,0,1,2.09.06.9.9,0,0,1,.32.81,1,1,0,0,1-.59.67,2,2,0,0,1-1.32,0c-.23,0-.33.3-.1.36a2.5,2.5,0,0,0,1.46,0,1.43,1.43,0,0,0,.86-.79,1.39,1.39,0,0,0-1.21-1.74,3,3,0,0,0-1.61.26.18.18,0,1,0,.1.35Z"/><path class="cls-4" d="M92.94,59.27c-.44.81-.84,2,0,2.75a2,2,0,0,0,2.51-.14,6.1,6.1,0,0,0,1.18-1.4c.13-.2-.19-.38-.32-.19-.57.84-1.37,1.94-2.54,1.73a1.09,1.09,0,0,1-.92-1,2.87,2.87,0,0,1,.44-1.6c.11-.21-.21-.39-.32-.18Z"/><path class="cls-4" d="M91.44,62.56a1,1,0,0,0,1,1.11.19.19,0,0,0,.18-.19.18.18,0,0,0-.18-.18h-.12l-.08,0h0s0,0,0,0l-.06,0-.07,0h0l0,0-.06,0,0,0s0,0,0,0l0-.06,0-.07h0s0,0,0,0v0a.64.64,0,0,1,0-.07v0s0,0,0,0v-.13h0a.19.19,0,0,0-.13-.23.18.18,0,0,0-.22.13Z"/><ellipse class="cls-6" cx="89.49" cy="57.69" rx="1.29" ry="1.99" transform="translate(14.35 133.12) rotate(-77.92)"/><ellipse class="cls-6" cx="101.49" cy="57.41" rx="1.99" ry="1.29" transform="translate(-9.77 22.52) rotate(-12.08)"/><path class="cls-4" d="M88.22,70.51a11.17,11.17,0,0,0,6.1,1.83,24.21,24.21,0,0,0,3.81-.22,13.54,13.54,0,0,0,3.4-.71c.22-.09.12-.45-.1-.36a14.29,14.29,0,0,1-3.55.74,26.08,26.08,0,0,1-3.3.19,11,11,0,0,1-6.17-1.79c-.2-.14-.38.18-.19.32Z"/><path class="cls-4" d="M66.19,85.92a71.91,71.91,0,0,1,6.68,19.36c0,.24.4.14.36-.1a72.25,72.25,0,0,0-6.72-19.45c-.11-.21-.43,0-.32.19Z"/><path class="cls-4" d="M118.53,85.54a73,73,0,0,0-2.88,15c0,.23.35.23.37,0a72.19,72.19,0,0,1,2.87-14.92.19.19,0,0,0-.36-.1Z"/><path class="cls-4" d="M23.47,129.2c-3.31,2.74-5.7,6.83-5.61,11.13.07,3.26,1.53,6.34,3.21,9.14,5.06,8.42,13.56,15.79,23.38,15.61,3.88-.07,8.39-2.13,8.75-6,.23-2.43-1.32-4.68-3.12-6.33s-3.94-2.95-5.49-4.84c-2.76-3.37-3.24-8-4-12.28-.55-3.24-1.4-6.68-3.53-9.26-.78-.95-1.87-2.37-3.22-2.18A20.55,20.55,0,0,0,28.75,126,22.3,22.3,0,0,0,23.47,129.2Z"/><path class="cls-4" d="M173.58,129.11a13.41,13.41,0,0,1,3.13,6.62,21.2,21.2,0,0,1-3.88,16.54,23.21,23.21,0,0,1-14.62,8.81c-3.07.51-6.59.29-8.74-2-2.3-2.4-2.21-6.16-1.7-9.44a58.25,58.25,0,0,1,5.77-17.62q1.08-2.1,2.33-4.11c.55-.87,1.14-2.23,2.17-2.64a10.12,10.12,0,0,1,3.52-.22,31,31,0,0,1,4.08.3A13.28,13.28,0,0,1,173.58,129.11Z"/><path class="cls-7" d="M136.42,118.08c-.95-1.88-3.14-2.73-5.17-3.29a58.45,58.45,0,0,0-12.4-2.26c.76-1.7-.52-3.75-2.23-4.49s-3.65-.53-5.5-.32a3.85,3.85,0,0,0-1.85.56,1.31,1.31,0,0,0-.42,1.71,3,3,0,0,0,1,.65c1.39.88.32,4-1.12,4.78-3.89-.23-20.66-.23-24.55,0-1.44-.77-2.51-3.9-1.12-4.78A3,3,0,0,0,84,110a1.31,1.31,0,0,0-.42-1.71,3.82,3.82,0,0,0-1.85-.56c-1.85-.21-3.8-.42-5.5.32s-3,2.79-2.23,4.49a58.45,58.45,0,0,0-12.4,2.26c-2,.56-4.22,1.41-5.17,3.29-1.26,2.5.25,5.42.8,8.16.74,3.68-.13,8,2.45,10.77,3,3.12,8.8,2.13,11.38,5.56.46.62.77,1.33,1.25,1.94a4.74,4.74,0,0,0,7.23-.18c1.06-1.5,1.13-3.5,2-5.12,1.24-2.27,3.87-3.4,6.39-4,2.77-.64,14.24-.64,17,0,2.52.57,5.15,1.7,6.39,4,.88,1.62,1,3.62,2,5.12a4.74,4.74,0,0,0,7.23.18c.48-.61.79-1.32,1.25-1.94,2.58-3.43,8.43-2.44,11.38-5.56,2.58-2.73,1.71-7.09,2.45-10.77C136.17,123.5,137.68,120.58,136.42,118.08Z"/><path class="cls-3" d="M26.1,148.14A17,17,0,0,0,43.92,157a50.32,50.32,0,0,1,6.94-.66,17.88,17.88,0,0,0,6.07-.72c1.92-.75,3.79-2.63,3.57-4.66.54-.59,1.47-.41,2.27-.41a4.18,4.18,0,0,0,3.55-2c.72-1.23,1.2-3.19.49-4.44A8.8,8.8,0,0,0,71.25,142c.93-.83,1.73-2.07,1.39-3.27a3,3,0,0,0-2.47-1.9,17.85,17.85,0,0,0-3.27,0,10.19,10.19,0,0,1-4.47-.79c2.4-1.34,5.31-1.22,8.06-1.12,3.19.11,6.66.06,9-2.37a4.43,4.43,0,0,0,.92-5.2c-1.14-2.06-3.51-2.18-5.58-2-2.69.28-5.34,1-8,.92-3.17-.06-6.6-1.38-7.65-4.61a4.21,4.21,0,0,1,2.16-5.26c3.91-1.64,7.74,4.05,11.58,2.06a4.24,4.24,0,0,0,2.1-4.28c-.39-3.25-2.95-5.26-5.44-7a23.84,23.84,0,0,0-7.43-3.9,9.3,9.3,0,0,0-8.06,1.24,39.49,39.49,0,0,0-3,3.17c-2.69,2.64-5-.65-16.36,16.46a14,14,0,0,1-2.37,1.68A17.07,17.07,0,0,0,26,147.87C26,148,26.05,148.05,26.1,148.14Z"/><path class="cls-4" d="M72.39,109.75a2.66,2.66,0,0,0-3,2.9,6.21,6.21,0,0,0,1.33,2.74,14.91,14.91,0,0,0,2.22,2.41c.17.16.44-.1.26-.26a15.47,15.47,0,0,1-1.82-1.89,8.77,8.77,0,0,1-1.45-2.35,2.28,2.28,0,0,1,2.36-3.19c.23,0,.33-.32.1-.36Z"/><path class="cls-4" d="M57.07,103.73v1.61a.18.18,0,0,0,.36,0v-1.61a.18.18,0,1,0-.36,0Z"/><path class="cls-4" d="M58.54,103.82a3.29,3.29,0,0,0,0,2c.08.22.43.12.36-.1a2.87,2.87,0,0,1,0-1.81c.08-.23-.28-.32-.35-.1Z"/><path class="cls-4" d="M79,126.16a2,2,0,0,0-2.23.59,4.61,4.61,0,0,0-.85,2.8,3.86,3.86,0,0,0,.46,2.67,3.2,3.2,0,0,0,2.49.94c.24,0,.24-.35,0-.37a3,3,0,0,1-2.16-.74,3.2,3.2,0,0,1-.43-2.29,5.33,5.33,0,0,1,.53-2.43,1.7,1.7,0,0,1,2-.85c.21.1.4-.22.18-.32Z"/><path class="cls-4" d="M64.37,126.91a6.18,6.18,0,0,0-.39,6.68c.11.21.43,0,.32-.18a5.85,5.85,0,0,1,.39-6.32c.14-.19-.18-.37-.32-.18Z"/><path class="cls-4" d="M66.93,144.08l-9.09,0a.19.19,0,0,0,0,.37l9.09,0a.19.19,0,0,0,0-.37Z"/><path class="cls-4" d="M61.06,150.3a35.52,35.52,0,0,0-6,.18c-.23,0-.23.39,0,.37a35.52,35.52,0,0,1,6-.18c.24,0,.24-.35,0-.37Z"/><path class="cls-4" d="M56.54,131.51a2.33,2.33,0,1,1,2.32-2.33A2.33,2.33,0,0,1,56.54,131.51Zm0-4.37a2,2,0,1,0,2,2A2.05,2.05,0,0,0,56.54,127.14Z"/><path class="cls-4" d="M55.87,141.62a2.33,2.33,0,1,1,2.33-2.33A2.33,2.33,0,0,1,55.87,141.62Zm0-4.37a2,2,0,1,0,2.05,2A2,2,0,0,0,55.87,137.25Z"/><path class="cls-4" d="M54,148.86a2,2,0,1,1,2-2A2,2,0,0,1,54,148.86Zm0-3.71a1.74,1.74,0,1,0,1.73,1.74A1.74,1.74,0,0,0,54,145.15Z"/><path class="cls-4" d="M52.17,154.35a1.72,1.72,0,1,1,1.71-1.72A1.71,1.71,0,0,1,52.17,154.35Zm0-3.22a1.51,1.51,0,1,0,1.51,1.5A1.51,1.51,0,0,0,52.17,151.13Z"/><path class="cls-3" d="M166.78,148.14A17,17,0,0,1,149,157a50.46,50.46,0,0,0-6.94-.66,17.94,17.94,0,0,1-6.08-.72c-1.91-.75-3.78-2.63-3.56-4.66-.54-.59-1.48-.41-2.27-.41a4.18,4.18,0,0,1-3.55-2c-.72-1.23-1.2-3.19-.49-4.44a8.8,8.8,0,0,1-4.44-2.09c-.93-.83-1.73-2.07-1.39-3.27a3,3,0,0,1,2.47-1.9,17.85,17.85,0,0,1,3.27,0,10.19,10.19,0,0,0,4.47-.79c-2.4-1.34-5.31-1.22-8.06-1.12-3.19.11-6.66.06-9-2.37a4.43,4.43,0,0,1-.92-5.2c1.14-2.06,3.51-2.18,5.58-2,2.68.28,5.34,1,8,.92,3.18-.06,6.61-1.38,7.66-4.61a4.22,4.22,0,0,0-2.16-5.26c-3.91-1.64-7.74,4.05-11.58,2.06a4.24,4.24,0,0,1-2.1-4.28c.39-3.25,3-5.26,5.43-7a24,24,0,0,1,7.44-3.9,9.28,9.28,0,0,1,8.05,1.24,37.93,37.93,0,0,1,3,3.17c2.69,2.64,5-.65,16.36,16.46a13.55,13.55,0,0,0,2.37,1.68,17.08,17.08,0,0,1,6.34,22.06Z"/><path class="cls-4" d="M120.59,110.11A2.28,2.28,0,0,1,123,113.3a8.53,8.53,0,0,1-1.41,2.3,14.82,14.82,0,0,1-1.86,1.94c-.18.16.09.42.26.26a15.15,15.15,0,0,0,2.18-2.35,6.29,6.29,0,0,0,1.37-2.8,2.66,2.66,0,0,0-3-2.9c-.23,0-.13.39.1.36Z"/><path class="cls-4" d="M135.44,103.73v1.61a.19.19,0,0,0,.37,0v-1.61a.19.19,0,0,0-.37,0Z"/><path class="cls-4" d="M134,103.92a2.81,2.81,0,0,1,0,1.81c-.08.22.28.32.36.1a3.29,3.29,0,0,0,0-2c-.07-.22-.43-.13-.36.1Z"/><path class="cls-4" d="M114.11,126.48a1.69,1.69,0,0,1,2,.8,5.16,5.16,0,0,1,.56,2.48,3.36,3.36,0,0,1-.39,2.23,2.85,2.85,0,0,1-2.2.8c-.24,0-.24.39,0,.37a3.26,3.26,0,0,0,2.48-.92,3.91,3.91,0,0,0,.47-2.69,4.62,4.62,0,0,0-.82-2.76,2,2,0,0,0-2.26-.63c-.22.1,0,.42.18.32Z"/><path class="cls-4" d="M128.19,127.09a5.85,5.85,0,0,1,.39,6.32.18.18,0,0,0,.32.18,6.18,6.18,0,0,0-.39-6.68c-.14-.19-.46,0-.32.18Z"/><path class="cls-4" d="M126,144.45l9.09,0a.19.19,0,0,0,0-.37l-9.09,0a.19.19,0,0,0,0,.37Z"/><path class="cls-4" d="M131.82,150.67a35.52,35.52,0,0,1,6,.18c.23,0,.23-.35,0-.37a35.52,35.52,0,0,0-6-.18c-.24,0-.24.39,0,.37Z"/><path class="cls-4" d="M136.34,131.51a2.33,2.33,0,1,1,2.33-2.33A2.32,2.32,0,0,1,136.34,131.51Zm0-4.37a2,2,0,1,0,2,2A2,2,0,0,0,136.34,127.14Z"/><path class="cls-4" d="M137,141.62a2.33,2.33,0,1,1,2.32-2.33A2.33,2.33,0,0,1,137,141.62Zm0-4.37a2,2,0,1,0,2,2A2.05,2.05,0,0,0,137,137.25Z"/><path class="cls-4" d="M138.86,148.86a2,2,0,1,1,2-2A2,2,0,0,1,138.86,148.86Zm0-3.71a1.74,1.74,0,1,0,1.73,1.74A1.74,1.74,0,0,0,138.86,145.15Z"/><path class="cls-4" d="M140.71,154.35a1.72,1.72,0,1,1,1.71-1.72A1.72,1.72,0,0,1,140.71,154.35Zm0-3.22a1.51,1.51,0,1,0,1.51,1.5A1.51,1.51,0,0,0,140.71,151.13Z"/><path class="cls-4" d="M75.42,110.12a30.91,30.91,0,0,0,6.21.75.19.19,0,0,0,0-.37,30.65,30.65,0,0,1-6.11-.74c-.23-.05-.33.3-.1.36Z"/><path class="cls-4" d="M110.37,110.84a20.28,20.28,0,0,0,5.77-.11c.24,0,.14-.39-.1-.36a20.31,20.31,0,0,1-5.67.1c-.23,0-.23.34,0,.37Z"/><path class="cls-4" d="M75.46,116.52q20.91-.83,41.81.35c.24,0,.24-.35,0-.37q-20.88-1.17-41.81-.35c-.24,0-.24.38,0,.37Z"/><path class="cls-4" d="M86.54,130.85c-.64-1.84-2.15-6.51.62-7.2a15.51,15.51,0,0,1,3.54-.13l3.62,0,6.8-.07,3.63-.05c1.15,0,3.63-.48,3.77,1.24a9.93,9.93,0,0,1-.67,3.17c-.37,1.37-.53,2.78-2.11,3.2a41.94,41.94,0,0,1-6.8.91c-2.34.21-4.69.33-7,.44a14.71,14.71,0,0,1-3.57,0,2.2,2.2,0,0,1-1.82-1.51c-.1-.22-.42,0-.32.18A2.82,2.82,0,0,0,89,132.76a59.72,59.72,0,0,0,7.07-.3c2.35-.15,4.71-.36,7-.7,1.59-.22,3.77-.16,4.48-1.88a22,22,0,0,0,.83-2.91,6.37,6.37,0,0,0,.41-2.66c-.27-1.55-1.73-1.35-3-1.34l-15.18.18c-1.58,0-4.41-.48-5.22,1.37s.09,4.66.7,6.43c.08.22.43.13.36-.1Z"/><path class="cls-4" d="M74.29,145.45a6.86,6.86,0,0,1-.71-3.23,2.43,2.43,0,0,1,1.75-2.17,5.13,5.13,0,0,1,1.41-.16c.47,0,1.18-.08,1.52.31a2.18,2.18,0,0,1,.37.71c.11.28.21.57.31.86a15.59,15.59,0,0,1,.44,1.66c.06.23.41.13.36-.1a13.88,13.88,0,0,0-.94-3,1.3,1.3,0,0,0-.85-.78,4.44,4.44,0,0,0-1.26-.08,4,4,0,0,0-2.41.64,2.91,2.91,0,0,0-1.07,2.11,7.33,7.33,0,0,0,.72,3.28c.09.22.45.12.36-.1Z"/><path class="cls-4" d="M114.28,144.67a6.46,6.46,0,0,1,.25-3.06,2.17,2.17,0,0,1,2.11-1.43,3.71,3.71,0,0,1,1.45.52,5,5,0,0,1,1.21.83,2.24,2.24,0,0,1,.28,1.55,8.77,8.77,0,0,1-.2,1.7c0,.24.31.34.36.1a8.16,8.16,0,0,0,.16-2.87c-.13-.86-1.05-1.33-1.75-1.7a3,3,0,0,0-2.49-.35,2.75,2.75,0,0,0-1.49,1.56,6.71,6.71,0,0,0-.26,3.15c0,.24.39.24.37,0Z"/><path class="cls-4" d="M95.41,128.22c.76,12.61-7,24.35-17.66,30.62-12.32,7.26-27.82,6.84-41.06,2.51-6.5-2.12-13-5.15-18.08-9.79A28.54,28.54,0,0,1,9.68,135.3C7.4,122.4,13.07,109.59,23,101.36c10.63-8.82,24.59-12.24,38.18-12a110.22,110.22,0,0,1,23.42,3.18c7.4,1.73,14.67,4.14,22.26,4.92A71.39,71.39,0,0,0,129.08,96a68.68,68.68,0,0,0,18.51-6.57c10.62-5.78,19.2-16,19.48-28.58s-9.46-22.32-20.23-27.1a44.3,44.3,0,0,0-32.63-1.25,40.38,40.38,0,0,0-7.42,3.61c-.2.13,0,.45.19.32,10.4-6.45,23.5-7.7,35.11-4.07,12,3.76,24.22,13.7,24.61,27.19.4,14-9.82,25.1-21.78,30.83a74.43,74.43,0,0,1-20.23,6.08,66.56,66.56,0,0,1-24.29-.36c-7.61-1.57-15-4-22.67-5.34A94.22,94.22,0,0,0,55.19,89.1c-12.61.77-25.31,5.09-34.6,13.89C12,111.17,7.32,123.11,9.25,135A28.69,28.69,0,0,0,17,150.55c4.34,4.42,9.88,7.46,15.59,9.72,12.8,5.08,27.72,6.57,40.68,1.2,10.5-4.35,19.24-13.74,21.8-24.93a29.11,29.11,0,0,0,.68-8.32c0-.24-.38-.24-.37,0Z"/><rect class="cls-2" x="120.66" y="23.14" width="5.18" height="23.51"/><rect class="cls-2" x="129.74" y="23.14" width="5.18" height="23.51"/><rect class="cls-2" x="138.82" y="23.14" width="5.18" height="23.51"/><rect class="cls-8" x="147.9" y="23.14" width="5.18" height="23.51"/><rect class="cls-8" x="156.98" y="23.14" width="5.18" height="23.51"/><rect class="cls-8" x="166.06" y="23.14" width="5.18" height="23.51"/><rect class="cls-8" x="175.14" y="23.14" width="5.18" height="23.51"/><rect class="cls-8" x="184.22" y="23.14" width="5.18" height="23.51"/><circle class="cls-4" cx="140.58" cy="68.04" r="14.45"/><path class="cls-2" d="M140.58,83.55A15.51,15.51,0,1,1,156.08,68,15.53,15.53,0,0,1,140.58,83.55Zm0-28.91A13.41,13.41,0,1,0,154,68,13.41,13.41,0,0,0,140.58,54.64Z"/><circle class="cls-9" cx="140.58" cy="62.54" r="4.76"/><path class="cls-9" d="M138.59,69.11h4a6.81,6.81,0,0,1,6.81,6.81v.28a0,0,0,0,1,0,0H131.77a0,0,0,0,1,0,0v-.28A6.81,6.81,0,0,1,138.59,69.11Z"/><circle class="cls-4" cx="94.82" cy="13.14" r="3.66"/><circle class="cls-4" cx="105.52" cy="13.14" r="3.66"/><circle class="cls-4" cx="116.22" cy="13.14" r="3.66"/><circle class="cls-4" cx="126.92" cy="13.14" r="3.66"/><path class="cls-10" d="M126.92,17.57a4.43,4.43,0,1,1,4.43-4.43A4.43,4.43,0,0,1,126.92,17.57Zm0-7.32a2.89,2.89,0,1,0,2.89,2.89A2.9,2.9,0,0,0,126.92,10.25Z"/><circle class="cls-4" cx="137.62" cy="13.14" r="3.66"/><circle class="cls-4" cx="148.32" cy="13.14" r="3.66"/><path class="cls-2" d="M148.32,17.57a4.43,4.43,0,1,1,4.42-4.43A4.44,4.44,0,0,1,148.32,17.57Zm0-7.32a2.89,2.89,0,1,0,2.89,2.89A2.9,2.9,0,0,0,148.32,10.25Z"/><path class="cls-7" d="M27.15,15.63H59.78A2.41,2.41,0,0,1,62.19,18V80a0,0,0,0,1,0,0H24.74a0,0,0,0,1,0,0V18A2.41,2.41,0,0,1,27.15,15.63Z"/><path class="cls-8" d="M27.15,15.63H59.78A2.41,2.41,0,0,1,62.19,18V27a0,0,0,0,1,0,0H24.74a0,0,0,0,1,0,0V18A2.41,2.41,0,0,1,27.15,15.63Z"/><rect class="cls-8" x="29.95" y="35.27" width="15.58" height="1.05"/><rect class="cls-5" x="29.95" y="39.69" width="25.99" height="1.05"/><rect class="cls-5" x="29.95" y="44.11" width="25.99" height="1.05"/><rect class="cls-5" x="29.95" y="53.44" width="25.99" height="1.05"/><rect class="cls-5" x="29.95" y="57.86" width="25.99" height="1.05"/><path class="cls-8" d="M56.47,73.65H30.29V63.12H56.47ZM31.34,72.6H55.41V64.17H31.34Z"/><path class="cls-4" d="M54.73,29.25a46.38,46.38,0,0,1,4.36,5c.14.19.47,0,.32-.19A45.65,45.65,0,0,0,55,29a.18.18,0,0,0-.26.26Z"/><path class="cls-4" d="M52.92,30.23l3.27,3.32c.16.17.42-.09.26-.26L53.18,30c-.16-.17-.43.09-.26.26Z"/><path class="cls-4" d="M27,70.1l5.38,7.81c.13.2.45,0,.32-.19L27.3,69.91c-.14-.19-.46,0-.32.19Z"/><path class="cls-4" d="M29.12,25.42c-.35-1.83-.64-4.14,1.21-5.27,1.47-.89,3.4-.69,5-.48.23,0,.23-.34,0-.37a9.77,9.77,0,0,0-4.37.15,3.6,3.6,0,0,0-2.48,3.21,10.14,10.14,0,0,0,.27,2.85c0,.24.4.14.35-.09Z"/><path class="cls-4" d="M159.68,95.69A7.82,7.82,0,0,1,167.29,99a7.05,7.05,0,0,1,1.38,4.08c0,.66-.1,1.32-.81,1.59a1.59,1.59,0,0,1-1.33-.13,3,3,0,0,1-1.25-2.3,5.66,5.66,0,0,1,6.25-6.31c1.48.17,2.67,1.06,4.05,1.53a2.29,2.29,0,0,0,2.68-.43c.16-.17-.1-.44-.26-.26-1.2,1.37-3.31-.11-4.59-.69a6.15,6.15,0,0,0-3.9-.41,6,6,0,0,0-4.65,5.78,4,4,0,0,0,1.25,3.25,1.92,1.92,0,0,0,2.46,0c.75-.74.51-2.2.29-3.11a8,8,0,0,0-1.74-3.37,8.12,8.12,0,0,0-7.54-2.82c-.24,0-.14.4.1.36Z"/><path class="cls-4" d="M172.54,67.41a9,9,0,0,1-.13,5c-.46,1.44-1.62,2.67-1.81,4.18s.63,2.76,1.13,4.07.61,3.06-.77,3.76c-.21.11,0,.42.19.32,2.93-1.49.07-5.27-.17-7.3s1.37-3.46,1.87-5.2a9.44,9.44,0,0,0,.05-4.92.19.19,0,0,0-.36.1Z"/><path class="cls-4" d="M9.35,105.25c.68-1.93,3.66-11-1-10.57-1.83.15-1.52,2-.73,3.13a7.22,7.22,0,0,0,4.82,3.13c4.72.52,7-4.74,8.07-8.44.24-.82.6-3.22-.86-3.27s-1.84,2.06-1.73,3a3.54,3.54,0,0,0,3.69,2.87c2.59.06,4.61-1.79,6.36-3.47.17-.16-.09-.42-.26-.26-2.07,2-5.5,4.86-8.4,2.6a2.75,2.75,0,0,1-.6-3.66c.37-.53,1-.81,1.46-.23a1.79,1.79,0,0,1,.21,1,7,7,0,0,1-.43,2c-.95,3-2.33,6.31-5.56,7.32a5.16,5.16,0,0,1-4.46-.82,8.39,8.39,0,0,1-1.81-1.71c-.63-.8-1.38-2.44.08-2.79,2.37-.57,2.37,2.71,2.2,4.17A28.58,28.58,0,0,1,9,105.15c-.08.23.28.32.35.1Z"/><path class="cls-4" d="M71.94,31.68A11.76,11.76,0,0,0,74.19,24c-.06-.83-.22-1.8-1.13-2.08a2,2,0,0,0-2,.61A2.29,2.29,0,0,0,71,25.07a4.34,4.34,0,0,0,2.68,2c2.11.69,5,1.18,6.92-.19,1.25-.88,1.78-2.4,3.17-3.15a5.15,5.15,0,0,1,4.68-.11c.22.1.4-.22.19-.32a5.51,5.51,0,0,0-5.7.53c-1.14.85-1.67,2.31-3,3a6.73,6.73,0,0,1-4.32.36c-1.44-.26-3.27-.64-4.15-1.94a2.13,2.13,0,0,1-.21-2.29,1.36,1.36,0,0,1,2.24-.13,4.31,4.31,0,0,1,.33,2.39,11.87,11.87,0,0,1-.31,2.22,11.45,11.45,0,0,1-1.91,4.09c-.14.2.18.38.32.19Z"/><path class="cls-4" d="M68.55,73.37c-.37-3.76,4.16-6.24,6.91-3.39.5.52,1.46,1.81,1.19,2.62l-1.13,1a1.78,1.78,0,0,1-.61-.58,3.2,3.2,0,0,1-.53-1.08,12.39,12.39,0,0,1,.15-6.31,11.89,11.89,0,0,0,.74-4.33,8.57,8.57,0,0,0-1.62-3.37,8.53,8.53,0,0,1,.63-9.55c.14-.18-.12-.45-.26-.26a8.93,8.93,0,0,0-1.37,8.58c.7,1.88,2.41,3.3,2.28,5.45s-1.09,4.11-1.2,6.26c-.07,1.49-.1,3.57.87,4.83.42.55,1.2,1.17,1.9.71.94-.62.46-2.27,0-3.06a4.78,4.78,0,0,0-2.79-2.35c-3-.94-5.87,1.87-5.58,4.86,0,.24.39.24.37,0Z"/></g></g></svg>